HIERARCHY
ROOT Hips
{
  OFFSET 279.157 85.6768 304.565
  CHANNELS 6 Xposition Yposition Zposition Zrotation Xrotation Yrotation
  JOINT LeftUpLeg
  {
    OFFSET 8.64259 1.95398 -2.38835
    CHANNELS 3 Zrotation Xrotation Yrotation
    JOINT LeftLeg
    {
      OFFSET 43.7702 0 0
      CHANNELS 3 Zrotation Xrotation Yrotation
      JOINT LeftFoot
      {
        OFFSET 40.6238 0 0
        CHANNELS 3 Zrotation Xrotation Yrotation
        JOINT LeftToeBase
        {
          OFFSET 12.7242 0 0
          CHANNELS 3 Zrotation Xrotation Yrotation
          End Site
          {
            OFFSET 0 0 0
          }
        }
      }
    }
  }
  JOINT RightUpLeg
  {
    OFFSET -8.2249 1.95398 -2.59336
    CHANNELS 3 Zrotation Xrotation Yrotation
    JOINT RightLeg
    {
      OFFSET 43.5653 0 0
      CHANNELS 3 Zrotation Xrotation Yrotation
      JOINT RightFoot
      {
        OFFSET 40.6238 0 0
        CHANNELS 3 Zrotation Xrotation Yrotation
        JOINT RightToeBase
        {
          OFFSET 12.7242 0 0
          CHANNELS 3 Zrotation Xrotation Yrotation
          End Site
          {
            OFFSET 0 0 0
          }
        }
      }
    }
  }
  JOINT Spine
  {
    OFFSET 0.165834 0.87714 6.61349
    CHANNELS 3 Zrotation Xrotation Yrotation
    JOINT Spine1
    {
      OFFSET 7.38963 1.71661e-005 0
      CHANNELS 3 Zrotation Xrotation Yrotation
      JOINT Spine2
      {
        OFFSET 11.9445 1.14441e-005 0
        CHANNELS 3 Zrotation Xrotation Yrotation
        JOINT Spine3
        {
          OFFSET 14.7254 4.19617e-005 0
          CHANNELS 3 Zrotation Xrotation Yrotation
          JOINT Spine4
          {
            OFFSET 10.9679 0 0
            CHANNELS 3 Zrotation Xrotation Yrotation
            JOINT RightShoulder
            {
              OFFSET 2.46616 -1.6653 3.69651
              CHANNELS 3 Zrotation Xrotation Yrotation
              JOINT RightArm
              {
                OFFSET 13.0012 0 0
                CHANNELS 3 Zrotation Xrotation Yrotation
                JOINT RightForeArm
                {
                  OFFSET 28.7848 1.52588e-005 0
                  CHANNELS 3 Zrotation Xrotation Yrotation
                  JOINT RightHand
                  {
                    OFFSET 26.5688 1.52588e-005 0
                    CHANNELS 3 Zrotation Xrotation Yrotation
                    End Site
                    {
                      OFFSET 0 0 0
                    }
                  }
                }
              }
            }
            JOINT LeftShoulder
            {
              OFFSET 2.38034 -1.29275 -3.7523
              CHANNELS 3 Zrotation Xrotation Yrotation
              JOINT LeftArm
              {
                OFFSET 16.3182 6.10351e-005 0
                CHANNELS 3 Zrotation Xrotation Yrotation
                JOINT LeftForeArm
                {
                  OFFSET 27.0901 0 0
                  CHANNELS 3 Zrotation Xrotation Yrotation
                  JOINT LeftHand
                  {
                    OFFSET 24.5451 1.52588e-005 0
                    CHANNELS 3 Zrotation Xrotation Yrotation
                    End Site
                    {
                      OFFSET 0 0 0
                    }
                  }
                }
              }
            }
            JOINT Neck
            {
              OFFSET 5.0226 -0.0266342 0
              CHANNELS 3 Zrotation Xrotation Yrotation
              JOINT Head
              {
                OFFSET 6.69364 2.86102e-005 0
                CHANNELS 3 Zrotation Xrotation Yrotation
                End Site
                {
                  OFFSET 0 0 0
                }
              }
            }
          }
        }
      }
    }
  }
}
MOTION
Frames:	7
Frame Time:	0.0416667
104.149 86.585 207.997 -89.207 48.5402 -91.7379 -167.68 -7.85412 88.3305 -41.1969 0.683722 -3.43176 97.6203 24.0511 -6.21648 47.3112 9.40419 7.79912 174.513 48.7177 96.4403 -51.5648 -23.8227 1.46102 65.933 -3.49188 -2.89752 17.1911 1.76537 9.43207 -0.917643 9.58368 -90.0146 7.70476 -1.83842 0.0592577 -3.96489 -1.83403 0.140123 -26.5099 -1.7712 -0.496183 -6.49722 -1.7712 -0.496191 92.4692 -28.2351 -102.383 41.2304 -14.6566 17.0987 -41.5523 -16.1032 -72.927 -36.6361 -1.03266 -10.252 -91.9248 -47.1968 75.1463 -12.2576 3.05151 -13.5667 34.5921 -5.92461 -89.9449 -5.0733 0.498709 -28.9622 33.652 4.94611 -4.56015 -6.29002 6.52804 3.40497 
108.617 87.1096 211.337 -92.8806 50.2857 -89.3421 -166.439 -4.81216 88.4748 -45.5958 -2.72743 -4.15883 100.335 23.9345 -8.66353 45.2627 8.21284 7.353 174.984 46.7125 96.6122 -48.3015 -18.8997 1.53709 68.3281 -4.38653 -0.683975 20.3272 1.50115 6.84095 -0.547796 9.97745 -89.7898 6.92179 -1.00415 0.459129 -4.74887 -0.982965 0.502876 -27.2871 -1.09571 0.136087 -7.27443 -1.09571 0.136078 92.0537 -27.5474 -103.491 39.4652 -6.51084 10.5952 -31.0482 -7.50524 -77.2764 -41.5742 -0.713189 -7.7715 -91.6556 -49.6731 76.1821 -19.535 10.7118 5.37462 35.4742 -3.40097 -85.2602 -3.35041 0.119689 -27.4095 31.9469 3.69584 -6.25144 -4.41834 6.01957 3.74272 
112.248 88.262 212.921 -95.7247 50.1003 -87.5569 -165.936 -2.42903 89.2373 -47.9454 -2.32573 -4.04198 96.8289 22.097 -7.73915 45.2018 8.21048 6.5868 175.531 45.894 96.049 -51.1117 -13.4443 0.893539 66.9701 -3.64343 -2.45868 16.9958 1.94557 8.94534 -0.158332 10.1199 -89.814 6.63437 -0.236959 0.375365 -5.03662 -0.220207 0.385431 -27.5717 -0.338819 0.286799 -7.55901 -0.338808 0.286805 92.0533 -25.7372 -104.14 36.1183 -0.299316 11.9902 -37.2744 -7.28226 -86.9226 -37.9592 0.0230156 -11.7991 -91.0048 -50.3427 77.3073 -25.5582 16.4505 24.771 31.5855 -7.19784 -86.4637 -2.43309 -0.0787904 -26.2793 28.8691 2.24949 -5.59719 -2.38597 4.29953 3.59647 
115.064 89.4806 213.532 -95.6716 46.2791 -87.6807 -167.245 -0.439638 90.0809 -47.2726 0.684196 -2.41773 95.9924 22.6796 -6.71023 41.4584 6.02351 6.62817 175.442 46.2898 93.7326 -55.1221 -15.1853 0.183337 65.4288 -2.66509 -2.37436 18.3221 2.05551 6.89654 -0.0713875 10.1058 -89.8808 6.66228 -0.091755 0.238127 -5.00869 -0.0811513 0.241924 -27.5437 -0.159085 0.199538 -7.53105 -0.15906 0.19954 91.7823 -25.876 -104.668 32.7268 1.71008 14.4628 -42.3229 -4.27437 -87.1633 -35.7662 -0.434482 -11.4503 -89.1198 -46.7763 79.3768 -30.8663 20.2063 36.8051 32.1738 -10.3783 -87.9145 1.07813 -0.735282 -25.4743 27.098 -0.0683133 -7.40376 -1.52508 2.71316 4.4736 
117.034 90.4987 213.304 -96.5672 45.0217 -87.2398 -168.47 -1.61279 90.463 -44.1166 -0.797946 -1.53767 95.8796 21.9899 -7.86861 38.8117 4.37574 7.41031 176.78 45.004 91.9224 -57.0373 -16.936 -1.06211 64.2689 -2.17226 -2.78235 18.7518 1.42589 9.19161 0.191071 10.0264 -89.9819 6.82089 0.389383 0.0201244 -4.84999 0.389894 0.00296013 -27.3855 0.365325 0.136218 -7.3729 0.36533 0.136217 92.6635 -24.5286 -103.263 31.6596 3.57378 16.5265 -56.7929 -9.8668 -96.7431 -32.5045 -2.61681 -7.0221 -89.2089 -46.0061 79.0741 -31.9434 19.9853 43.3382 33.8296 -10.9752 -87.7612 1.46831 -0.787005 -24.9004 24.9909 -1.24618 -5.95379 -1.07609 0.946668 3.3221 
118.458 91.4127 212.388 -96.6124 45.6506 -86.9161 -168.879 -2.17025 91.1673 -41.6596 -0.191303 -1.08185 93.3863 21.0865 -6.49698 38.5999 4.18379 7.93381 177.788 43.8526 91.5565 -57.1202 -16.6377 -1.74183 64.5412 -2.37771 -2.62626 19.6721 1.19218 9.15171 0.319752 9.83483 -89.9603 7.20418 0.655675 0.048196 -4.4666 0.657179 0.0192827 -27.003 0.610867 0.243036 -6.9903 0.61089 0.243032 92.3295 -24.5714 -103.977 32.4361 1.76468 16.9487 -58.9819 -10.9916 -96.0812 -31.2144 -2.84872 -6.42539 -88.7433 -46.6263 79.9325 -30.5451 16.5081 45.5617 37.2458 -10.087 -88.1249 3.1021 -1.02566 -23.7816 23.4793 -1.29204 -5.40923 -0.319901 0.644686 2.66029 
119.419 92.1926 210.804 -96.9391 46.3396 -86.5706 -168.733 -4.09721 92.3974 -37.9572 0.517682 -0.894589 91.4739 20.2717 -5.81208 38.5408 4.12319 8.12984 177.921 42.2735 91.0793 -56.7662 -15.5071 -1.94281 65.655 -2.99062 -2.2385 21.1212 0.844862 8.99587 0.322628 9.75574 -89.9411 7.36218 0.669699 0.0841826 -4.3086 0.672757 0.054617 -26.845 0.61343 0.281574 -6.83229 0.613444 0.281562 92.2394 -24.3786 -104.248 35.0296 -0.503831 17.5121 -54.1517 -7.18131 -93.7747 -29.8042 -2.00674 -8.66176 -88.6032 -47.7867 80.3856 -28.6973 14.822 42.2237 36.5896 -8.33217 -87.1174 2.98696 -0.995781 -23.5314 24.2862 -1.07388 -4.50244 -1.28771 0.553546 2.37896 
